<svg xmlns="http://www.w3.org/2000/svg" width="35" height="20.211" viewBox="0 0 35 20.211">
  <g id="academic" transform="translate(-3.637 -46.003)" opacity="0.597">
    <path id="Path_26" data-name="Path 26" d="M167.336,197.8v3.361a1.167,1.167,0,0,1-.645,1.044l-5.161,2.58a6.387,6.387,0,0,0-1.556,1.1,1.168,1.168,0,0,1-1.613,0,6.388,6.388,0,0,0-1.556-1.1l-5.161-2.58a1.167,1.167,0,0,1-.645-1.044V197.8l7.207,2.059a3.5,3.5,0,0,0,1.923,0Z" transform="translate(-138.031 -139.992)"/>
    <g id="Group_20" data-name="Group 20" transform="translate(31.639 56.478)">
      <path id="Path_27" data-name="Path 27" d="M393.334,180.663v7.028a1.167,1.167,0,1,1-2.334,0V181.33Z" transform="translate(-391 -180.663)"/>
    </g>
    <g id="Group_21" data-name="Group 21" transform="translate(3.637 46.002)">
      <path id="Path_28" data-name="Path 28" d="M48.215,57.626,31.879,52.959a1.168,1.168,0,0,1,0-2.244l16.336-4.667a1.166,1.166,0,0,1,.641,0l16.336,4.667a1.168,1.168,0,0,1,0,2.244L48.856,57.626A1.167,1.167,0,0,1,48.215,57.626Z" transform="translate(-31.035 -46.002)"/>
    </g>
  </g>
</svg>
