<svg xmlns="http://www.w3.org/2000/svg" width="24.21" height="25.4" viewBox="0 0 24.21 25.4">
  <g id="bell_1_" data-name="bell (1)" transform="translate(0.2 -63.8)" opacity="0.302">
    <path id="Path_1" data-name="Path 1" d="M137.8,421.357a4.469,4.469,0,0,1-4.464-4.464.893.893,0,1,1,1.786,0,2.679,2.679,0,0,0,5.357,0,.893.893,0,1,1,1.786,0A4.469,4.469,0,0,1,137.8,421.357Zm0,0" transform="translate(-125.892 -332.357)" stroke="#000" stroke-width="0.4"/>
    <path id="Path_2" data-name="Path 2" d="M21.726,85.429H2.083A2.084,2.084,0,0,1,.728,81.762a7.978,7.978,0,0,0,2.843-6.109V72.333a8.333,8.333,0,0,1,16.667,0v3.319a7.976,7.976,0,0,0,2.831,6.1,2.083,2.083,0,0,1-1.343,3.675ZM11.9,65.786a6.555,6.555,0,0,0-6.548,6.548v3.319a9.757,9.757,0,0,1-3.464,7.464.3.3,0,0,0-.107.229.3.3,0,0,0,.3.3H21.726a.3.3,0,0,0,.3-.3.294.294,0,0,0-.1-.226,9.76,9.76,0,0,1-3.467-7.467V72.333A6.555,6.555,0,0,0,11.9,65.786Zm0,0" stroke="#000" stroke-width="0.4"/>
  </g>
</svg>
