<svg xmlns="http://www.w3.org/2000/svg" width="25.7" height="25.7" viewBox="0 0 25.7 25.7">
  <g id="chat_1_" data-name="chat (1)" transform="translate(0.35 0.35)" opacity="0.298">
    <g id="Group_2" data-name="Group 2">
      <g id="Group_1" data-name="Group 1">
        <path id="Path_4" data-name="Path 4" d="M10.156,0A10.168,10.168,0,0,0,0,10.156v9.375a.781.781,0,0,0,.483.722.77.77,0,0,0,.3.059.787.787,0,0,0,.553-.228l2.217-2.217A10.155,10.155,0,1,0,10.156,0Zm0,18.75a8.542,8.542,0,0,1-6.073-2.52A.774.774,0,0,0,3.531,16a.785.785,0,0,0-.553.228L1.563,17.645V10.156a8.594,8.594,0,1,1,8.594,8.594Z" stroke="#000" stroke-width="0.7"/>
      </g>
    </g>
    <g id="Group_4" data-name="Group 4" transform="translate(9.891 9.89)">
      <g id="Group_3" data-name="Group 3">
        <path id="Path_5" data-name="Path 5" d="M215.946,202.873a.781.781,0,0,0-1.269.913,7.656,7.656,0,0,1,1.431,4.5v6.708l-1.181-1.181a.784.784,0,0,0-1.1,0,7.829,7.829,0,0,1-5.53,2.289,7.656,7.656,0,0,1-4.5-1.431.781.781,0,1,0-.913,1.269,9.21,9.21,0,0,0,5.409,1.725,9.355,9.355,0,0,0,6.055-2.216l1.988,1.988a.781.781,0,0,0,.552.228.77.77,0,0,0,.3-.059.781.781,0,0,0,.483-.722v-8.594A9.21,9.21,0,0,0,215.946,202.873Z" transform="translate(-202.561 -202.547)" stroke="#000" stroke-width="0.7"/>
      </g>
    </g>
  </g>
</svg>
