<svg xmlns="http://www.w3.org/2000/svg" width="30" height="30.976" viewBox="0 0 30 30.976">
  <g id="credit-card" transform="translate(-7.7 0)" opacity="0.603">
    <g id="Group_29" data-name="Group 29" transform="translate(7.7 0)">
      <path id="Path_38" data-name="Path 38" d="M31.614,7.984a.414.414,0,0,0,.171-.792L15.944.167a1.913,1.913,0,0,0-2.529.97L7.867,13.575a1.913,1.913,0,0,0,.97,2.529l3.2,1.382a.609.609,0,0,0,.856-.552V11.654A3.666,3.666,0,0,1,16.552,7.99H31.614V7.984Z" transform="translate(-7.7 0)"/>
      <path id="Path_39" data-name="Path 39" d="M137.79,153.136H118.576a1.94,1.94,0,0,0-1.94,1.94v13.572a1.94,1.94,0,0,0,1.94,1.94h2.58a7.045,7.045,0,0,1-.1-1.16,7.341,7.341,0,0,1,.12-1.3H119.1v-6.5h18.169v6.491h-2.086a7.341,7.341,0,0,1,.12,1.3,7.045,7.045,0,0,1-.1,1.16h2.58a1.94,1.94,0,0,0,1.94-1.94V155.076A1.94,1.94,0,0,0,137.79,153.136Zm-.52,4.495H119.1V155.6h18.169Z" transform="translate(-109.73 -143.428)"/>
      <path id="Path_40" data-name="Path 40" d="M225.219,331.436a4.983,4.983,0,1,0,4.983,4.983A4.984,4.984,0,0,0,225.219,331.436Zm1.433,6.948a1.576,1.576,0,0,1-.83.532.232.232,0,0,0-.2.266c.006.146,0,.292,0,.444a.179.179,0,0,1-.2.2q-.238.009-.475,0c-.139,0-.2-.082-.2-.216v-.323c0-.235-.013-.247-.241-.285a2.99,2.99,0,0,1-.843-.241c-.209-.1-.235-.152-.171-.374.044-.165.089-.33.139-.488.057-.19.108-.209.285-.12a2.718,2.718,0,0,0,.938.279,1.139,1.139,0,0,0,.615-.082.476.476,0,0,0,.114-.837,1.283,1.283,0,0,0-.349-.2,7.236,7.236,0,0,1-.957-.431,1.347,1.347,0,0,1-.767-1.3,1.427,1.427,0,0,1,1.046-1.325c.254-.1.26-.089.26-.355v-.273c.006-.2.038-.235.241-.241h.184c.431,0,.431,0,.431.431,0,.3,0,.3.3.349a2.762,2.762,0,0,1,.666.2.192.192,0,0,1,.127.26c-.051.184-.1.374-.165.552s-.114.2-.279.12a2.093,2.093,0,0,0-1.052-.209.841.841,0,0,0-.279.057.4.4,0,0,0-.1.71,2.026,2.026,0,0,0,.456.26,7.07,7.07,0,0,1,.837.38A1.491,1.491,0,0,1,226.651,338.384Z" transform="translate(-206.763 -310.425)"/>
    </g>
  </g>
</svg>
