<svg xmlns="http://www.w3.org/2000/svg" width="23.419" height="23" viewBox="0 0 23.419 23">
  <g id="dots-menu" transform="translate(0 -2.471)">
    <g id="Group_5" data-name="Group 5" transform="translate(0 2.471)">
      <path id="Path_6" data-name="Path 6" d="M3.589,2.471A2.739,2.739,0,1,0,6.327,5.21,2.742,2.742,0,0,0,3.589,2.471Z" transform="translate(-0.778 -2.471)"/>
      <path id="Path_7" data-name="Path 7" d="M108.108,2.471a2.739,2.739,0,1,0,2.739,2.739A2.742,2.742,0,0,0,108.108,2.471Z" transform="translate(-96.434 -2.471)"/>
      <path id="Path_8" data-name="Path 8" d="M214.318,7.948a2.739,2.739,0,1,0-2.739-2.739A2.742,2.742,0,0,0,214.318,7.948Z" transform="translate(-193.637 -2.471)"/>
      <path id="Path_9" data-name="Path 9" d="M2.739,111.426A2.739,2.739,0,1,0,0,108.688,2.742,2.742,0,0,0,2.739,111.426Z" transform="translate(0 -97.174)"/>
      <path id="Path_10" data-name="Path 10" d="M107.264,111.426a2.739,2.739,0,1,0-2.739-2.738A2.742,2.742,0,0,0,107.264,111.426Z" transform="translate(-95.661 -97.174)"/>
      <path id="Path_11" data-name="Path 11" d="M213.472,111.426a2.739,2.739,0,1,0-2.74-2.738A2.741,2.741,0,0,0,213.472,111.426Z" transform="translate(-192.862 -97.174)"/>
      <path id="Path_12" data-name="Path 12" d="M3.478,209.108a2.739,2.739,0,1,0,2.738,2.739A2.742,2.742,0,0,0,3.478,209.108Z" transform="translate(-0.676 -191.585)"/>
      <path id="Path_13" data-name="Path 13" d="M108,209.108a2.739,2.739,0,1,0,2.738,2.739A2.742,2.742,0,0,0,108,209.108Z" transform="translate(-96.338 -191.585)"/>
      <path id="Path_14" data-name="Path 14" d="M214.216,209.108a2.739,2.739,0,1,0,2.739,2.739A2.742,2.742,0,0,0,214.216,209.108Z" transform="translate(-193.544 -191.585)"/>
    </g>
  </g>
</svg>
