<svg xmlns="http://www.w3.org/2000/svg" width="25.295" height="30" viewBox="0 0 25.295 30">
  <g id="two-passports" transform="translate(-47.996)">
    <path id="Path_37" data-name="Path 37" d="M55.583,19.838l-1.52.207a5.285,5.285,0,0,1-.918-1.844l1.947-.265A13.738,13.738,0,0,0,55.583,19.838Zm3.2,2.253.1-.01c.334-.078.683-.632.9-1.436l-2.226.3C57.993,21.676,58.445,22.079,58.785,22.09Zm-3.426-.843a5.306,5.306,0,0,0,1.138.567,7.584,7.584,0,0,1-.376-.67ZM55.153,12.7c.021-.079.043-.155.066-.23a5.306,5.306,0,0,0-1.035.956l.833-.113C55.057,13.1,55.1,12.894,55.153,12.7Zm2.318-1.127h-.017l-.081.013c-.335.09-.683.653-.9,1.464-.005.021-.009.043-.015.064l2.3-.313C58.307,12.007,57.826,11.571,57.471,11.571Zm2.353,4.34a11.933,11.933,0,0,0-.481-1.811l-3.1.422a11.991,11.991,0,0,0,.021,1.873Zm-4.962-1.2-1.556.212a5.249,5.249,0,0,0-.346,1.923l1.946-.265A13.725,13.725,0,0,1,54.862,14.711Zm18.4-9.723L70.7,22.95a2.832,2.832,0,0,1-2.185,2.35,2.662,2.662,0,0,1-2.287,2.943L53.512,29.975a2.664,2.664,0,0,1-3-2.282L48.02,9.41a2.666,2.666,0,0,1,2.282-3L54.8,5.8l.481-3.375A2.818,2.818,0,0,1,58.469.029L70.868,1.8a2.82,2.82,0,0,1,2.393,3.19ZM64.876,15.913A6.666,6.666,0,0,0,57.364,10.2l-.075.012-.054.005c-.041.005-.08.014-.12.023a6.661,6.661,0,0,0-3.9,10.917.683.683,0,0,0,.122.137,6.664,6.664,0,0,0,4.924,2.19h0c.214,0,.429-.011.644-.032.045,0,.09-.006.135-.013l.032-.006.1-.011a6.672,6.672,0,0,0,5.711-7.512Zm6.756-12.2a1.443,1.443,0,0,0-.957-.566l-12.4-1.769a1.476,1.476,0,0,0-.208-.015,1.459,1.459,0,0,0-1.436,1.248L56.206,5.6l3.321-.452,3.49-.475a2.664,2.664,0,0,1,3,2.282l.021.152h0l2.292,16.827a1.458,1.458,0,0,0,1.014-1.182L71.908,4.795A1.444,1.444,0,0,0,71.632,3.717ZM61.4,19.045l1.779-.242a5.246,5.246,0,0,0,.385-2.021l-2.2.3A13.613,13.613,0,0,1,61.4,19.045Zm-4.958-1.293a11.844,11.844,0,0,0,.512,1.9l3.064-.417a11.916,11.916,0,0,0-.016-1.967Zm4.671,3.213c-.037.139-.078.27-.121.4a5.277,5.277,0,0,0,1.257-1.054l-1.018.139C61.2,20.625,61.162,20.8,61.118,20.964ZM59.678,11.7a7.457,7.457,0,0,1,.515.9l1.089-.148A5.308,5.308,0,0,0,59.678,11.7Zm3.706,3.726a5.281,5.281,0,0,0-.854-1.76l-1.812.247a13.825,13.825,0,0,1,.461,1.813Z" transform="translate(0)" fill="#fff"/>
  </g>
</svg>
