<svg xmlns="http://www.w3.org/2000/svg" width="14" height="13.985" viewBox="0 0 14 13.985">
  <g id="pencil_4_" data-name="pencil (4)" transform="translate(0 -0.247)" opacity="0.597">
    <path id="Path_46" data-name="Path 46" d="M8.645,82.473l-7.7,7.7a.307.307,0,0,0-.08.141L.009,93.744a.3.3,0,0,0,.294.377.3.3,0,0,0,.073-.009L3.8,93.258a.3.3,0,0,0,.141-.08l7.7-7.7Zm0,0" transform="translate(0 -79.889)"/>
    <path id="Path_47" data-name="Path 47" d="M338.38,1.534l-.857-.857a1.553,1.553,0,0,0-2.144,0l-1.05,1.05,3,3,1.05-1.05a1.517,1.517,0,0,0,0-2.144Zm0,0" transform="translate(-324.825 0)"/>
  </g>
</svg>
